# Blender 4.0.2
# www.blender.org
mtllib Fence.mtl
o Cube
v 0.390985 2.598046 3.635620
v 0.390985 -2.598046 3.635620
v 0.390985 2.598046 4.417591
v 0.390985 -2.598046 4.417591
v -0.390985 2.598046 3.635620
v -0.390985 -2.598046 3.635620
v -0.390985 2.598046 4.417591
v -0.390985 -2.598046 4.417591
v 0.390985 2.598046 -3.635620
v 0.390985 -2.598046 -3.635620
v 0.390985 2.598046 -4.417591
v 0.390985 -2.598046 -4.417591
v -0.390985 2.598046 -3.635620
v -0.390985 -2.598046 -3.635620
v -0.390985 2.598046 -4.417591
v -0.390985 -2.598046 -4.417591
vn -0.0000 1.0000 -0.0000
vn -0.0000 -0.0000 1.0000
vn -1.0000 -0.0000 -0.0000
vn -0.0000 -1.0000 -0.0000
vn 1.0000 -0.0000 -0.0000
vn -0.0000 -0.0000 -1.0000
vt 0.625000 0.500000
vt 0.875000 0.500000
vt 0.875000 0.750000
vt 0.625000 0.750000
vt 0.375000 0.750000
vt 0.625000 1.000000
vt 0.375000 1.000000
vt 0.375000 0.000000
vt 0.625000 0.000000
vt 0.625000 0.250000
vt 0.375000 0.250000
vt 0.125000 0.500000
vt 0.375000 0.500000
vt 0.125000 0.750000
s 0
usemtl FenceMat
f 1/1/1 5/2/1 7/3/1 3/4/1
f 4/5/2 3/4/2 7/6/2 8/7/2
f 8/8/3 7/9/3 5/10/3 6/11/3
f 6/12/4 2/13/4 4/5/4 8/14/4
f 2/13/5 1/1/5 3/4/5 4/5/5
f 6/11/6 5/10/6 1/1/6 2/13/6
f 9/1/1 11/4/1 15/3/1 13/2/1
f 12/5/6 16/7/6 15/6/6 11/4/6
f 16/8/3 14/11/3 13/10/3 15/9/3
f 14/12/4 16/14/4 12/5/4 10/13/4
f 10/13/5 12/5/5 11/4/5 9/1/5
f 14/11/2 10/13/2 9/1/2 13/10/2
o Cube.001
v 0.294260 1.056268 4.910667
v 0.294260 1.813552 4.951252
v 0.294260 1.599364 -5.223095
v 0.294260 2.356648 -5.182510
v 0.716675 1.056268 4.910667
v 0.716675 1.813552 4.951252
v 0.716675 1.599364 -5.223095
v 0.716675 2.356648 -5.182510
vn -1.0000 -0.0000 -0.0000
vn -0.0000 0.0535 -0.9986
vn 1.0000 -0.0000 -0.0000
vn -0.0000 -0.0535 0.9986
vn -0.0000 -0.9986 -0.0535
vn -0.0000 0.9986 0.0535
vt 0.375000 0.000000
vt 0.625000 0.000000
vt 0.625000 0.250000
vt 0.375000 0.250000
vt 0.625000 0.500000
vt 0.375000 0.500000
vt 0.625000 0.750000
vt 0.375000 0.750000
vt 0.625000 1.000000
vt 0.375000 1.000000
vt 0.125000 0.500000
vt 0.125000 0.750000
vt 0.875000 0.500000
vt 0.875000 0.750000
s 0
usemtl FenceMat
f 17/15/7 18/16/7 20/17/7 19/18/7
f 19/18/8 20/17/8 24/19/8 23/20/8
f 23/20/9 24/19/9 22/21/9 21/22/9
f 21/22/10 22/21/10 18/23/10 17/24/10
f 19/25/11 23/20/11 21/22/11 17/26/11
f 24/19/12 20/27/12 18/28/12 22/21/12
o Cube.002
v 0.294260 -0.141155 5.221454
v 0.294260 0.616559 5.189915
v 0.294260 -0.563202 -4.918072
v 0.294260 0.194512 -4.949611
v 0.716675 -0.141155 5.221454
v 0.716675 0.616559 5.189915
v 0.716675 -0.563202 -4.918072
v 0.716675 0.194512 -4.949611
vn -1.0000 -0.0000 -0.0000
vn -0.0000 -0.0416 -0.9991
vn 1.0000 -0.0000 -0.0000
vn -0.0000 0.0416 0.9991
vn -0.0000 -0.9991 0.0416
vn -0.0000 0.9991 -0.0416
vt 0.375000 0.000000
vt 0.625000 0.000000
vt 0.625000 0.250000
vt 0.375000 0.250000
vt 0.625000 0.500000
vt 0.375000 0.500000
vt 0.625000 0.750000
vt 0.375000 0.750000
vt 0.625000 1.000000
vt 0.375000 1.000000
vt 0.125000 0.500000
vt 0.125000 0.750000
vt 0.875000 0.500000
vt 0.875000 0.750000
s 0
usemtl FenceMat
f 25/29/13 26/30/13 28/31/13 27/32/13
f 27/32/14 28/31/14 32/33/14 31/34/14
f 31/34/15 32/33/15 30/35/15 29/36/15
f 29/36/16 30/35/16 26/37/16 25/38/16
f 27/39/17 31/34/17 29/36/17 25/40/17
f 32/33/18 28/41/18 26/42/18 30/35/18
