# Blender 4.0.2
# www.blender.org
mtllib Rock.mtl
o Cube
v 0.411541 0.798239 -0.674628
v 0.520137 -0.423610 -0.567680
v 0.391496 0.766981 0.438098
v 0.542574 -0.514986 0.521515
v -0.628232 0.782290 -0.569866
v -0.509994 -0.445300 -0.508597
v -0.713696 0.838425 0.528447
v -0.552976 -0.449283 0.566185
v -0.632195 -0.582952 0.037716
v 0.016592 -0.560545 -0.646349
v 0.575976 0.200276 -0.751449
v -0.764068 0.209122 0.673074
v 0.590861 0.107585 0.593729
v -0.672344 0.159396 -0.648616
v -0.185994 0.947719 0.598891
v 0.505264 0.916464 -0.141568
v 0.012787 -0.631011 0.667913
v -0.804217 0.951470 -0.013259
v -0.112960 0.920216 -0.753717
v 0.661574 -0.608603 -0.016152
v -0.180440 1.222489 -0.094048
v -0.093850 0.154302 0.884898
v -0.963702 0.189979 0.029409
v 0.045653 -0.884299 0.027416
v 0.828915 0.148210 -0.096040
v -0.040938 0.183887 -0.951529
vn 0.3232 0.8902 -0.3210
vn -0.3906 0.8293 -0.3996
vn -0.2962 0.9052 0.3047
vn 0.3862 0.8636 0.3241
vn 0.3425 -0.1754 0.9230
vn 0.3706 0.3374 0.8653
vn -0.2323 0.2755 0.9328
vn -0.2849 -0.2691 0.9200
vn -0.8968 -0.3579 0.2600
vn -0.9527 0.1770 0.2472
vn -0.9174 0.1446 -0.3707
vn -0.8778 -0.3499 -0.3271
vn -0.3443 -0.8692 -0.3550
vn 0.3279 -0.8555 -0.4008
vn 0.3530 -0.8842 0.3059
vn -0.3642 -0.8797 0.3057
vn 0.9156 -0.2131 -0.3410
vn 0.9016 0.3286 -0.2813
vn 0.8816 0.3651 0.2990
vn 0.9481 -0.1466 0.2821
vn -0.3573 -0.3447 -0.8680
vn -0.4056 0.1742 -0.8973
vn 0.2515 0.2377 -0.9382
vn 0.2699 -0.3237 -0.9068
vt 0.450800 0.384335
vt 0.549200 0.384335
vt 0.549200 0.482735
vt 0.450800 0.482735
vt 0.753735 0.008374
vt 0.842492 0.393993
vt 0.407165 0.492604
vt 0.400211 0.000092
vt 0.833981 0.995326
vt 0.440473 0.999908
vt 0.098655 0.999908
vt 0.000092 0.381105
vt 0.400211 0.087705
vt 0.034974 0.067692
vt 0.785010 0.037179
vt 0.874617 0.490757
vt 0.455958 0.519279
vt 0.419133 -0.005112
vt 0.819829 0.957311
vt 0.454312 1.005424
vt 0.012402 0.970396
vt -0.004156 0.511691
vt 0.045283 0.088358
vt 0.357351 0.750101
vt 0.425126 0.750101
vt 0.425126 0.817875
vt 0.357351 0.817875
vt 0.830607 0.165287
vt 0.868387 0.592537
vt 0.446409 0.482898
vt 0.471066 0.000093
vt 0.768704 0.993416
vt 0.399578 0.999907
vt 0.013236 0.975308
vt 0.000093 0.404195
vt 0.099780 0.000093
vt 0.764923 0.041614
vt 0.783274 0.505191
vt 0.425316 0.512236
vt 0.382540 -0.003071
vt 0.871271 0.989048
vt 0.496395 0.997206
vt 0.095614 0.974371
vt 0.011876 0.526928
vt 0.026585 0.080519
s 0
usemtl RockTex
f 1/1/1 19/2/1 21/3/1 16/4/1
f 19/1/2 5/2/2 18/3/2 21/4/2
f 21/1/3 18/2/3 7/3/3 15/4/3
f 16/1/4 21/2/4 15/3/4 3/4/4
f 4/5/5 13/6/5 22/7/5 17/8/5
f 13/6/6 3/9/6 15/10/6 22/7/6
f 22/7/7 15/10/7 7/11/7 12/12/7
f 17/13/8 22/7/8 12/12/8 8/14/8
f 8/15/9 12/16/9 23/17/9 9/18/9
f 12/16/10 7/19/10 18/20/10 23/17/10
f 23/17/11 18/20/11 5/21/11 14/22/11
f 9/18/12 23/17/12 14/22/12 6/23/12
f 6/24/13 10/25/13 24/26/13 9/27/13
f 10/24/14 2/25/14 20/26/14 24/27/14
f 24/24/15 20/25/15 4/26/15 17/27/15
f 9/24/16 24/25/16 17/26/16 8/27/16
f 2/28/17 11/29/17 25/30/17 20/31/17
f 11/29/18 1/32/18 16/33/18 25/30/18
f 25/30/19 16/33/19 3/34/19 13/35/19
f 20/31/20 25/30/20 13/35/20 4/36/20
f 6/37/21 14/38/21 26/39/21 10/40/21
f 14/38/22 5/41/22 19/42/22 26/39/22
f 26/39/23 19/42/23 1/43/23 11/44/23
f 10/40/24 26/39/24 11/44/24 2/45/24
